<?xml version="1.0" standalone="no"?>
<!DOCTYPE svg PUBLIC "-//W3C//DTD SVG 20010904//EN"
 "http://www.w3.org/TR/2001/REC-SVG-20010904/DTD/svg10.dtd">
<svg version="1.0" xmlns="http://www.w3.org/2000/svg"
 width="874.000000pt" height="874.000000pt" viewBox="0 0 874.000000 874.000000"
 preserveAspectRatio="xMidYMid meet">
<metadata>
Created by potrace 1.16, written by Peter Selinger 2001-2019
</metadata>
<g transform="translate(0.000000,874.000000) scale(0.100000,-0.100000)"
fill="#000000" stroke="none">
<path d="M4175 8657 c-332 -227 -625 -490 -860 -772 -55 -66 -115 -138 -133
-160 l-34 -40 38 70 c45 85 174 301 221 370 29 43 31 50 16 53 -10 1 -289 -13
-620 -33 -331 -19 -618 -35 -638 -35 l-36 0 -69 -142 c-192 -403 -321 -853
-379 -1328 -11 -91 -22 -178 -24 -195 -8 -61 -6 475 3 615 4 80 7 146 5 148
-2 2 -252 -155 -555 -350 l-552 -353 7 -125 c22 -433 114 -856 289 -1335 15
-39 -57 93 -149 273 -67 132 -95 179 -102 170 -16 -20 -582 -1101 -595 -1136
-11 -28 -8 -36 41 -114 83 -131 207 -300 320 -437 128 -154 378 -406 525 -526
166 -136 172 -142 101 -104 -108 58 -148 82 -303 177 -84 52 -155 92 -157 90
-5 -5 63 -1258 70 -1294 8 -40 431 -224 710 -309 238 -72 520 -131 755 -158
l115 -14 -120 -8 c-66 -4 -216 -5 -333 -2 -172 5 -213 4 -210 -7 2 -7 163
-254 358 -550 l355 -537 107 5 c432 24 929 148 1398 351 47 20 81 32 75 27
-17 -17 -268 -158 -430 -243 -86 -45 -153 -85 -148 -90 8 -8 1032 -554 1110
-592 l43 -21 142 96 c373 252 676 532 961 888 55 69 102 127 105 130 22 23
-180 -346 -275 -504 -30 -48 -52 -91 -49 -94 6 -5 1240 85 1284 94 18 4 33 26
68 101 204 440 325 900 383 1463 12 111 4 -239 -10 -459 -5 -84 -8 -155 -7
-157 3 -3 252 150 822 504 l298 185 -7 121 c-28 513 -124 961 -304 1414 -11
28 -19 52 -16 52 8 0 154 -268 241 -442 49 -98 91 -178 94 -178 10 1 620 1139
620 1158 0 21 -98 178 -196 314 -184 255 -410 505 -659 727 -53 48 -55 51 -20
31 71 -42 238 -151 324 -212 46 -33 90 -62 98 -65 16 -6 15 224 -3 1044 l-6
272 -47 28 c-92 54 -339 173 -472 227 -451 183 -951 292 -1487 322 -67 4 -121
8 -120 10 2 1 89 10 193 20 138 13 287 17 547 18 250 0 355 3 351 10 -15 25
-226 347 -463 705 l-254 383 -90 -6 c-540 -40 -1016 -166 -1548 -410 -43 -19
-78 -34 -78 -32 0 12 402 241 579 331 51 25 91 48 90 50 -19 17 -1152 605
-1166 605 -10 -1 -72 -38 -138 -83z m1045 -918 c132 -90 285 -216 404 -335
l109 -108 -99 -16 c-54 -10 -161 -34 -237 -54 l-138 -36 -97 24 c-258 65 -457
90 -733 90 l-205 1 145 101 145 101 75 -19 c106 -26 251 -75 344 -115 43 -18
81 -33 83 -33 6 0 64 118 64 129 0 15 -156 108 -232 139 -37 15 -68 30 -68 34
0 22 324 172 345 160 5 -3 48 -31 95 -63z m-1775 -64 c178 -19 338 -47 488
-87 l119 -31 -49 -40 c-26 -23 -106 -98 -178 -168 l-130 -127 -80 -22 c-257
-71 -629 -239 -822 -371 -24 -17 -43 -26 -43 -22 0 4 34 76 74 160 l74 152 84
25 c95 29 245 61 333 71 100 11 95 7 95 91 l0 74 -127 -1 c-71 0 -151 -4 -180
-8 l-51 -7 20 40 c56 110 189 286 216 286 10 0 80 -7 157 -15z m2761 -747 c81
-83 160 -176 224 -264 24 -32 44 -60 45 -62 5 -6 125 71 125 79 0 20 -75 158
-127 233 l-54 79 113 -6 c99 -6 181 -16 254 -32 25 -6 85 -130 162 -335 47
-124 128 -407 120 -415 -2 -2 -44 11 -94 30 -50 19 -152 52 -225 74 l-134 40
-105 101 c-190 184 -434 368 -638 480 -45 24 -79 47 -76 50 6 6 144 16 259 18
l81 2 70 -72z m-3712 -35 c-30 -70 -114 -341 -114 -369 0 -6 -42 -54 -92 -106
-207 -211 -354 -409 -515 -696 l-30 -54 -6 69 c-4 37 -10 117 -13 176 l-7 108
96 94 c52 51 143 130 201 175 l107 82 -30 51 c-16 29 -36 56 -44 61 -20 13
-105 -30 -224 -110 -70 -47 -93 -59 -93 -46 1 50 20 246 31 306 l11 68 87 40
c185 86 362 149 552 198 63 16 115 29 115 30 1 0 -13 -35 -32 -77z m2093 -354
c691 -58 1304 -420 1697 -1002 88 -131 214 -389 265 -542 78 -236 114 -464
113 -720 0 -366 -77 -688 -243 -1016 -348 -687 -1022 -1151 -1788 -1230 -141
-15 -429 -6 -561 16 -469 79 -877 286 -1214 614 -189 185 -328 372 -441 591
-167 328 -247 660 -247 1030 0 348 71 662 218 970 79 164 131 249 243 400 291
390 725 686 1196 815 266 73 504 96 762 74z m-3056 -894 c6 -49 22 -145 35
-211 l24 -122 -21 -58 c-81 -234 -139 -552 -155 -842 l-7 -134 -66 114 c-37
62 -77 132 -90 155 l-24 41 32 99 c17 54 61 165 97 246 74 166 76 150 -13 198
l-44 24 -20 -25 c-38 -48 -100 -146 -132 -207 -17 -35 -35 -63 -38 -63 -17 0
-139 306 -139 348 0 38 261 335 425 483 l120 109 2 -33 c2 -17 8 -72 14 -122z
m5680 21 c65 -37 122 -72 127 -79 21 -25 72 -366 72 -479 l0 -48 74 0 75 0 8
58 c4 31 8 112 8 178 l0 122 74 -52 c41 -28 109 -83 151 -123 l77 -72 -9 -68
c-24 -182 -85 -432 -150 -617 l-32 -89 -20 28 c-78 108 -144 192 -209 266 -70
80 -77 92 -87 150 -46 256 -149 561 -273 805 -62 121 -63 123 -33 105 17 -10
83 -49 147 -85z m-5858 -1698 l86 -106 16 -98 c49 -284 147 -589 266 -825 l39
-79 -107 67 c-60 36 -127 78 -151 92 -23 14 -44 33 -47 41 -15 49 -36 214 -46
355 l-12 163 -69 4 c-54 2 -69 0 -73 -12 -11 -40 -18 -104 -24 -218 l-6 -124
-63 46 c-34 26 -99 81 -143 124 l-81 77 6 56 c16 140 110 481 178 646 l30 73
57 -88 c32 -48 96 -135 144 -194z m6137 -113 l73 -155 -14 -42 c-19 -58 -128
-281 -180 -368 -47 -80 -51 -65 38 -130 l42 -30 55 65 c30 36 77 99 103 140
26 41 51 74 54 75 15 0 109 -299 109 -347 0 -41 -293 -323 -487 -468 l-98 -74
-8 137 c-4 75 -13 184 -21 241 l-13 103 40 92 c106 244 181 538 222 864 4 28
8 52 9 52 2 0 36 -70 76 -155z m-5794 -1193 c54 -27 135 -64 179 -82 76 -31
83 -36 130 -103 136 -191 380 -441 574 -588 60 -46 109 -84 108 -85 -1 -1 -78
4 -172 11 l-169 12 -34 39 c-48 56 -181 257 -222 336 -19 38 -39 68 -45 68 -5
0 -35 -10 -67 -22 -40 -16 -58 -28 -58 -40 0 -28 55 -171 97 -251 l39 -73 -91
14 c-49 7 -135 28 -190 46 l-99 32 -23 74 c-64 207 -115 455 -129 624 l-7 88
40 -25 c22 -14 84 -47 139 -75z m5104 -375 c-11 -93 -22 -172 -25 -178 -11
-17 -259 -177 -350 -225 -49 -26 -92 -49 -94 -50 -8 -6 45 -134 56 -134 28 0
184 55 254 90 l76 38 -14 -77 c-15 -81 -77 -277 -94 -297 -13 -15 -307 -87
-446 -108 -102 -16 -325 -37 -331 -31 -2 1 13 29 34 60 20 32 70 128 112 214
42 86 81 159 88 163 6 4 76 56 155 115 162 121 425 374 529 511 35 45 65 81
66 79 2 -1 -6 -78 -16 -170z m-3670 -739 c217 -106 453 -185 679 -229 181 -34
182 -26 -3 -101 l-165 -66 -107 54 c-59 30 -159 89 -223 132 -64 42 -119 78
-122 80 -4 2 -28 -22 -54 -53 l-48 -56 53 -54 c29 -29 91 -82 137 -117 l84
-63 -88 -28 c-47 -15 -131 -36 -184 -45 l-98 -16 -27 24 c-56 52 -199 218
-279 325 -68 90 -185 266 -185 277 0 2 111 3 248 2 l247 0 135 -66z m2282
-227 l-107 -139 -75 -8 c-78 -7 -399 1 -436 12 -19 5 -22 -1 -33 -67 -9 -58
-9 -74 1 -80 22 -14 189 -49 268 -57 l74 -7 -64 -68 c-71 -76 -212 -197 -229
-197 -23 0 -267 83 -375 127 -122 49 -346 161 -346 172 0 3 35 24 78 45 42 21
136 75 207 121 l130 82 110 7 c246 15 539 73 775 155 63 22 118 40 122 40 5 1
-40 -62 -100 -138z"/>
</g>
</svg>
